<?xml version="1.0" ?><!-- Uploaded to: SVG Repo, www.svgrepo.com, Generator: SVG Repo Mixer Tools -->
<svg fill="#000000" width="800px" height="800px" viewBox="0 0 100 100" data-name="Layer 1" id="Layer_1" xmlns="http://www.w3.org/2000/svg"><title/><path d="M74.26,79.45v9.37a1.82,1.82,0,0,0,3.64,0V79.45h5.92l7.89-13.66L83.82,52.14H68.06L60.18,65.79l7.88,13.66Zm-4.1-23.67H81.72l5.78,10-5.78,10H70.16l-5.78-10Z"/><path d="M37.33,90.64a1.83,1.83,0,0,0,1.82-1.82V55.52l2.78,4.81H58.22l8.14-14.1L58.22,32.12H48.63l5-8.65L45.48,9.36H29.19L21,23.47l5,8.65H16.44L8.29,46.23l8.15,14.1h16.3l2.77-4.8V88.82A1.82,1.82,0,0,0,37.33,90.64Zm-6.7-33.95H18.55L12.5,46.23l6.05-10.47H32.33L25.24,23.47,31.29,13H43.38l6,10.46-7.1,12.29h13.8l6,10.47-6,10.46H44l-6.7-11.6Z"/></svg>